<svg xmlns="http://www.w3.org/2000/svg" viewBox="0 0 32 32" width="32" height="32">
  <!-- Shield outer -->
  <path d="M4 2 L28 2 Q30 2 30 4 L30 22 Q30 30 16 32 Q2 30 2 22 L2 4 Q2 2 4 2 Z" fill="#1e293b"/>
  <!-- Shield inner -->
  <path d="M6 5 L26 5 Q27 5 27 6 L27 21 Q27 28 16 30 Q5 28 5 21 L5 6 Q5 5 6 5 Z" fill="#f1f5f9"/>
  <!-- Gold bar -->
  <rect x="8" y="7" width="16" height="5" rx="1.5" fill="#b45309"/>
  <!-- Highlighted date dot -->
  <circle cx="16" cy="17" r="2.5" fill="#b45309"/>
  <!-- Grid dots -->
  <circle cx="10" cy="17" r="1.5" fill="#cbd5e1"/>
  <circle cx="22" cy="17" r="1.5" fill="#cbd5e1"/>
  <circle cx="10" cy="23" r="1.5" fill="#cbd5e1"/>
  <circle cx="16" cy="23" r="1.5" fill="#cbd5e1"/>
  <circle cx="22" cy="23" r="1.5" fill="#cbd5e1"/>
</svg>
